<svg width="40" height="48" version="1.1" id="svg6" viewBox="0 0 20 24" xmlns="http://www.w3.org/2000/svg">
  <text fill="#000000" font-family="Open Sans" font-size="14.6667" font-weight="700" x="9.1552248" y="17.235025" id="text3">3</text>
  <text fill="#000000" font-family="Open Sans" font-size="14.6667" font-weight="700" x="1.6834615" y="17.235025" id="text1">1</text>
  <g fill="none" stroke="#000">
    <path stroke-miterlimit="3.9" stroke-width="1.5" d="M4.56087 5.02999c1.56883-1.22054 3.4998-1.88321 5.48753-1.88321 4.9356 0 8.9366 4.00108 8.9366 8.93662 0 1.3838-.3206 2.7295-.9158 3.941"/>
    <path stroke-width="1.5" d="M15.6466 19.0494c-1.5871 1.2754-3.5621 1.9707-5.5982 1.9707-4.93561 0-8.93669-4.0011-8.93669-8.9367 0-1.5078.38063-2.96947 1.08149-4.26144"/>
    <path stroke-miterlimit="3.9" stroke-width="2.44492" d="m5.09068 4.62107.41279-.61559.41278-.6156.32673.66528.32672.66528-.73951-.04968Z"/>
    <path stroke-miterlimit="3.9" stroke-width="2.44492" d="m13.7 19.2796.741-.0127.7411-.0127-.3595.6481-.3595.6482-.3816-.6354Z"/>
  </g>
</svg>
